<svg width="109" height="109" viewBox="0 0 109 109" fill="none" xmlns="http://www.w3.org/2000/svg">
<g filter="url(#filter0_d)">
<g clip-path="url(#clip0)">
<path fill-rule="evenodd" clip-rule="evenodd" d="M81.6233 23.4882C81.877 23.2255 82.1805 23.016 82.516 22.8719C82.8515 22.7278 83.2123 22.6519 83.5775 22.6487C83.9426 22.6456 84.3047 22.7151 84.6427 22.8534C84.9807 22.9917 85.2877 23.1959 85.5459 23.4541C85.8041 23.7123 86.0083 24.0193 86.1466 24.3573C86.2849 24.6953 86.3544 25.0574 86.3513 25.4225C86.3481 25.7877 86.2722 26.1485 86.1281 26.484C85.984 26.8195 85.7745 27.123 85.5118 27.3767L81.3868 31.5017C80.8711 32.0172 80.1718 32.3068 79.4426 32.3068C78.7134 32.3068 78.014 32.0172 77.4983 31.5017C77.239 31.2512 76.8917 31.1126 76.5312 31.1157C76.1706 31.1189 75.8258 31.2635 75.5708 31.5184C75.3159 31.7734 75.1713 32.1182 75.1682 32.4787C75.165 32.8393 75.3036 33.1866 75.5541 33.4459C76.5855 34.477 77.9842 35.0562 79.4426 35.0562C80.901 35.0562 82.2997 34.477 83.3311 33.4459L87.4561 29.3209C88.458 28.2836 89.0123 26.8943 88.9998 25.4522C88.9873 24.0101 88.4088 22.6307 87.3891 21.6109C86.3693 20.5912 84.9899 20.0127 83.5478 20.0002C82.1057 19.9877 80.7164 20.542 79.6791 21.5439L77.6166 23.6064C77.4853 23.7333 77.3805 23.885 77.3084 24.0527C77.2364 24.2205 77.1985 24.4009 77.1969 24.5835C77.1953 24.7661 77.2301 24.9471 77.2992 25.1161C77.3683 25.2851 77.4704 25.4386 77.5995 25.5677C77.7286 25.6968 77.8822 25.7989 78.0511 25.868C78.2201 25.9372 78.4012 25.972 78.5838 25.9704C78.7663 25.9688 78.9468 25.9309 79.1145 25.8588C79.2823 25.7867 79.434 25.682 79.5608 25.5507L81.6233 23.4882ZM74.7483 30.3632C75.264 29.8476 75.9634 29.558 76.6926 29.558C77.4218 29.558 78.1211 29.8476 78.6368 30.3632C78.7637 30.4945 78.9154 30.5992 79.0832 30.6713C79.2509 30.7434 79.4313 30.7813 79.6139 30.7829C79.7965 30.7845 79.9775 30.7497 80.1465 30.6805C80.3155 30.6114 80.469 30.5093 80.5981 30.3802C80.7272 30.2511 80.8293 30.0976 80.8985 29.9286C80.9676 29.7596 81.0024 29.5786 81.0008 29.396C80.9992 29.2134 80.9613 29.033 80.8892 28.8652C80.8172 28.6975 80.7124 28.5458 80.5811 28.4189C79.5497 27.3878 78.151 26.8086 76.6926 26.8086C75.2342 26.8086 73.8355 27.3878 72.8041 28.4189L68.6791 32.5439C68.1538 33.0513 67.7348 33.6582 67.4465 34.3292C67.1583 35.0002 67.0066 35.7219 67.0002 36.4522C66.9939 37.1825 67.133 37.9067 67.4096 38.5827C67.6861 39.2586 68.0945 39.8727 68.6109 40.3891C69.1273 40.9055 69.7414 41.3139 70.4173 41.5904C71.0933 41.867 71.8175 42.0061 72.5478 41.9998C73.2781 41.9934 73.9998 41.8417 74.6708 41.5535C75.3418 41.2652 75.9487 40.8462 76.4561 40.3209L78.5186 38.2584C78.6499 38.1316 78.7547 37.9799 78.8267 37.8121C78.8988 37.6443 78.9367 37.4639 78.9383 37.2813C78.9399 37.0988 78.9051 36.9177 78.836 36.7487C78.7668 36.5797 78.6647 36.4262 78.5356 36.2971C78.4065 36.168 78.253 36.0659 78.084 35.9968C77.915 35.9276 77.734 35.8929 77.5514 35.8944C77.3688 35.896 77.1884 35.934 77.0207 36.006C76.8529 36.0781 76.7012 36.1828 76.5743 36.3142L74.5118 38.3767C74.2582 38.6393 73.9547 38.8488 73.6192 38.9929C73.2837 39.1371 72.9228 39.2129 72.5577 39.2161C72.1925 39.2193 71.8304 39.1497 71.4925 39.0114C71.1545 38.8732 70.8475 38.669 70.5892 38.4108C70.331 38.1525 70.1268 37.8455 69.9886 37.5075C69.8503 37.1696 69.7807 36.8075 69.7839 36.4423C69.7871 36.0772 69.8629 35.7163 70.0071 35.3808C70.1512 35.0453 70.3607 34.7418 70.6233 34.4882L74.7483 30.3632Z" fill="#333333"/>
</g>
<rect x="61.5" y="15.5" width="32" height="32" rx="2.5" stroke="#F2C94C" stroke-width="3" stroke-linejoin="round"/>
</g>
<path d="M28.8545 29.8545C28.8545 29.3023 29.3023 28.8545 29.8545 28.8545H35.1818C35.7341 28.8545 36.1818 29.3023 36.1818 29.8545V35.1818C36.1818 35.7341 35.7341 36.1818 35.1818 36.1818H29.8545C29.3023 36.1818 28.8545 35.7341 28.8545 35.1818V29.8545ZM14.2 15.2C14.2 14.6477 14.6477 14.2 15.2 14.2H49.8364C50.3887 14.2 50.8364 14.6477 50.8364 15.2V49.8364C50.8364 50.3887 50.3887 50.8364 49.8364 50.8364H15.2C14.6477 50.8364 14.2 50.3887 14.2 49.8364V15.2ZM22.5273 21.5273C21.975 21.5273 21.5273 21.975 21.5273 22.5273V42.5091C21.5273 43.0614 21.975 43.5091 22.5273 43.5091H42.5091C43.0614 43.5091 43.5091 43.0614 43.5091 42.5091V22.5273C43.5091 21.975 43.0614 21.5273 42.5091 21.5273H22.5273ZM28.8545 73.8182C28.8545 73.2659 29.3023 72.8182 29.8545 72.8182H35.1818C35.7341 72.8182 36.1818 73.2659 36.1818 73.8182V79.1455C36.1818 79.6977 35.7341 80.1455 35.1818 80.1455H29.8545C29.3023 80.1455 28.8545 79.6977 28.8545 79.1455V73.8182ZM14.2 59.1636C14.2 58.6114 14.6477 58.1636 15.2 58.1636H49.8364C50.3887 58.1636 50.8364 58.6114 50.8364 59.1636V93.8C50.8364 94.3523 50.3887 94.8 49.8364 94.8H15.2C14.6477 94.8 14.2 94.3523 14.2 93.8V59.1636ZM22.5273 65.4909C21.975 65.4909 21.5273 65.9386 21.5273 66.4909V86.4727C21.5273 87.025 21.975 87.4727 22.5273 87.4727H42.5091C43.0614 87.4727 43.5091 87.025 43.5091 86.4727V66.4909C43.5091 65.9386 43.0614 65.4909 42.5091 65.4909H22.5273ZM58.1636 59.1636C58.1636 58.6114 58.6114 58.1636 59.1636 58.1636H71.8182C72.3705 58.1636 72.8182 58.6114 72.8182 59.1636V65.4909H80.1455V59.1636C80.1455 58.6114 80.5932 58.1636 81.1455 58.1636H93.8C94.3523 58.1636 94.8 58.6114 94.8 59.1636V64.4909C94.8 65.0432 94.3523 65.4909 93.8 65.4909H80.1455V72.8182H93.8C94.3523 72.8182 94.8 73.2659 94.8 73.8182V93.8C94.8 94.3523 94.3523 94.8 93.8 94.8H81.1455C80.5932 94.8 80.1455 94.3523 80.1455 93.8V87.4727H65.4909V93.8C65.4909 94.3523 65.0432 94.8 64.4909 94.8H59.1636C58.6114 94.8 58.1636 94.3523 58.1636 93.8V88.4727C58.1636 87.9204 58.6114 87.4727 59.1636 87.4727H65.4909V80.1455H59.1636C58.6114 80.1455 58.1636 79.6977 58.1636 79.1455V59.1636ZM86.4727 87.4727C87.025 87.4727 87.4727 87.025 87.4727 86.4727V81.1455C87.4727 80.5932 87.025 80.1455 86.4727 80.1455H80.1455V87.4727H86.4727ZM80.1455 72.8182H73.8182C73.2659 72.8182 72.8182 72.3705 72.8182 71.8182V65.4909H66.4909C65.9386 65.4909 65.4909 65.9386 65.4909 66.4909V80.1455H80.1455V72.8182Z" fill="#FAFAFA"/>
<rect x="4" y="4" width="101" height="101" rx="6" stroke="#333333" stroke-width="8"/>
<defs>
<filter id="filter0_d" x="56" y="14" width="43" height="43" filterUnits="userSpaceOnUse" color-interpolation-filters="sRGB">
<feFlood flood-opacity="0" result="BackgroundImageFix"/>
<feColorMatrix in="SourceAlpha" type="matrix" values="0 0 0 0 0 0 0 0 0 0 0 0 0 0 0 0 0 0 127 0"/>
<feOffset dy="4"/>
<feGaussianBlur stdDeviation="2"/>
<feColorMatrix type="matrix" values="0 0 0 0 0.512625 0 0 0 0 0.386013 0 0 0 0 0 0 0 0 0.58 0"/>
<feBlend mode="normal" in2="BackgroundImageFix" result="effect1_dropShadow"/>
<feBlend mode="normal" in="SourceGraphic" in2="effect1_dropShadow" result="shape"/>
</filter>
<clipPath id="clip0">
<rect x="60" y="14" width="35" height="35" rx="4" fill="white"/>
</clipPath>
</defs>
</svg>
